<svg width="512" height="512" viewBox="0 0 512 512" fill="none" xmlns="http://www.w3.org/2000/svg">
<g clip-path="url(#clip0_2057_130)">
<g filter="url(#filter0_d_2057_130)">
<path d="M81 201.455C81 99.0308 159.351 16 256 16C352.649 16 431 99.0308 431 201.455V256H389.824V201.455C389.824 123.131 329.909 59.6364 256 59.6364C182.091 59.6364 122.176 123.131 122.176 201.455V256H81V201.455Z" fill="url(#paint0_linear_2057_130)"/>
<path d="M235.412 190.545C235.412 178.496 244.629 168.727 256 168.727C267.371 168.727 276.588 178.496 276.588 190.545V223.273H235.412V190.545Z" fill="url(#paint1_linear_2057_130)"/>
<path fill-rule="evenodd" clip-rule="evenodd" d="M350.376 354.182C334.491 392.711 298.212 419.636 256 419.636C199.147 419.636 153.059 370.795 153.059 310.545V201.455C153.059 141.205 199.147 92.3636 256 92.3636C312.853 92.3636 358.941 141.205 358.941 201.455V310.545H431C431 412.969 352.649 496 256 496C159.351 496 81 412.969 81 310.545H122.176C122.176 388.87 182.091 452.364 256 452.364C315.542 452.364 366.002 411.155 383.37 354.182H350.376ZM256 136C290.112 136 317.765 165.305 317.765 201.455V310.545H276.588V256H235.412V343.273C235.412 349.298 240.021 354.182 245.706 354.182H302.037C290.728 367.573 274.292 376 256 376C221.888 376 194.235 346.695 194.235 310.545V201.455C194.235 165.305 221.888 136 256 136Z" fill="url(#paint2_linear_2057_130)"/>
<path d="M350.376 349.915H347.52L346.432 352.556C331.138 389.652 296.312 415.37 256 415.37C201.734 415.37 157.325 368.675 157.325 310.545V201.455C157.325 143.325 201.734 96.6303 256 96.6303C310.266 96.6303 354.675 143.325 354.675 201.455V310.545V314.812H358.941H426.687C424.549 413.133 348.726 491.733 256 491.733C163.274 491.733 87.4505 413.133 85.313 314.812H117.968C120.1 393.297 180.862 456.63 256 456.63C317.609 456.63 369.593 414.006 387.451 355.426L389.131 349.915H383.37H350.376ZM317.765 314.812H322.031V310.545V201.455C322.031 163.185 292.698 131.733 256 131.733C219.302 131.733 189.969 163.185 189.969 201.455V310.545C189.969 348.815 219.302 380.267 256 380.267C275.648 380.267 293.243 371.207 305.297 356.935L311.225 349.915H302.037H245.706C242.607 349.915 239.678 347.178 239.678 343.273V260.267H272.322V310.545V314.812H276.588H317.765ZM85.2667 201.455C85.2667 101.151 161.937 20.2667 256 20.2667C350.063 20.2667 426.733 101.151 426.733 201.455V251.733H394.09V201.455C394.09 121.011 332.495 55.3697 256 55.3697C179.505 55.3697 117.91 121.011 117.91 201.455V251.733H85.2667V201.455ZM239.678 190.545C239.678 180.615 247.215 172.994 256 172.994C264.785 172.994 272.322 180.615 272.322 190.545V219.006H239.678V190.545Z" stroke="black" stroke-width="8.53333"/>
</g>
</g>
<defs>
<filter id="filter0_d_2057_130" x="38.3333" y="-22.6667" width="435.333" height="565.333" filterUnits="userSpaceOnUse" color-interpolation-filters="sRGB">
<feFlood flood-opacity="0" result="BackgroundImageFix"/>
<feColorMatrix in="SourceAlpha" type="matrix" values="0 0 0 0 0 0 0 0 0 0 0 0 0 0 0 0 0 0 127 0" result="hardAlpha"/>
<feOffset dy="4"/>
<feGaussianBlur stdDeviation="21.3333"/>
<feComposite in2="hardAlpha" operator="out"/>
<feColorMatrix type="matrix" values="0 0 0 0 0.330469 0 0 0 0 0.117188 0 0 0 0 0.9375 0 0 0 0.25 0"/>
<feBlend mode="normal" in2="BackgroundImageFix" result="effect1_dropShadow_2057_130"/>
<feBlend mode="normal" in="SourceGraphic" in2="effect1_dropShadow_2057_130" result="shape"/>
</filter>
<linearGradient id="paint0_linear_2057_130" x1="81" y1="270" x2="431" y2="272" gradientUnits="userSpaceOnUse">
<stop offset="1.33118e-09" stop-color="#3500CD"/>
<stop offset="0.499739" stop-color="#FF0000"/>
<stop offset="1" stop-color="#3500CD"/>
</linearGradient>
<linearGradient id="paint1_linear_2057_130" x1="81" y1="270" x2="431" y2="272" gradientUnits="userSpaceOnUse">
<stop offset="1.33118e-09" stop-color="#3500CD"/>
<stop offset="0.499739" stop-color="#FF0000"/>
<stop offset="1" stop-color="#3500CD"/>
</linearGradient>
<linearGradient id="paint2_linear_2057_130" x1="81" y1="270" x2="431" y2="272" gradientUnits="userSpaceOnUse">
<stop offset="1.33118e-09" stop-color="#3500CD"/>
<stop offset="0.499739" stop-color="#FF0000"/>
<stop offset="1" stop-color="#3500CD"/>
</linearGradient>
<clipPath id="clip0_2057_130">
<rect width="512" height="512" fill="white"/>
</clipPath>
</defs>
</svg>
