<svg width="512" height="512" viewBox="0 0 512 512" fill="none" xmlns="http://www.w3.org/2000/svg">
<g clip-path="url(#clip0_2055_129)">
<g filter="url(#filter0_d_2055_129)">
<path d="M75 202.333C75 102.186 156.186 21 256.333 21C356.48 21 437.667 102.186 437.667 202.333V255.667H395V202.333C395 125.75 332.917 63.6667 256.333 63.6667C179.75 63.6667 117.667 125.75 117.667 202.333V255.667H75V202.333Z" fill="url(#paint0_linear_2055_129)"/>
<path d="M235 191.667C235 179.885 244.551 170.333 256.333 170.333C268.116 170.333 277.667 179.885 277.667 191.667V223.667H235V191.667Z" fill="url(#paint1_linear_2055_129)"/>
<path fill-rule="evenodd" clip-rule="evenodd" d="M354.125 351.667C337.665 389.339 300.073 415.667 256.333 415.667C197.423 415.667 149.667 367.91 149.667 309V202.333C149.667 143.423 197.423 95.6667 256.333 95.6667C315.243 95.6667 363 143.423 363 202.333V309H437.667C437.667 409.148 356.48 490.333 256.333 490.333C156.186 490.333 75 409.148 75 309H117.667C117.667 385.584 179.75 447.667 256.333 447.667C318.03 447.667 370.316 407.374 388.312 351.667H354.125ZM256.333 138.333C291.68 138.333 320.333 166.987 320.333 202.333V309H277.667V255.667H235V341C235 346.891 239.776 351.667 245.667 351.667H304.036C292.318 364.76 275.288 373 256.333 373C220.987 373 192.333 344.346 192.333 309V202.333C192.333 166.987 220.987 138.333 256.333 138.333Z" fill="url(#paint2_linear_2055_129)"/>
<path d="M320.333 313.267H324.6V309V202.333C324.6 164.631 294.036 134.067 256.333 134.067C218.631 134.067 188.067 164.631 188.067 202.333V309C188.067 346.703 218.631 377.267 256.333 377.267C276.552 377.267 294.722 368.471 307.216 354.512L313.581 347.4H304.036H245.667C242.132 347.4 239.267 344.535 239.267 341V259.933H273.4V309V313.267H277.667H320.333ZM354.125 347.4H351.333L350.215 349.958C334.41 386.133 298.317 411.4 256.333 411.4C199.78 411.4 153.933 365.554 153.933 309V202.333C153.933 145.779 199.78 99.9333 256.333 99.9333C312.887 99.9333 358.733 145.779 358.733 202.333V309V313.267H363H433.35C431.084 409.087 352.698 486.067 256.333 486.067C159.969 486.067 81.583 409.087 79.3171 313.267H113.462C115.719 390.233 178.821 451.933 256.333 451.933C319.935 451.933 373.824 410.395 392.373 352.978L394.175 347.4H388.312H354.125ZM79.2667 202.333C79.2667 104.542 158.543 25.2667 256.333 25.2667C354.124 25.2667 433.4 104.542 433.4 202.333V251.4H399.267V202.333C399.267 123.393 335.273 59.4 256.333 59.4C177.394 59.4 113.4 123.393 113.4 202.333V251.4H79.2667V202.333ZM239.267 191.667C239.267 182.241 246.907 174.6 256.333 174.6C265.759 174.6 273.4 182.241 273.4 191.667V219.4H239.267V191.667Z" stroke="black" stroke-width="8.53333"/>
</g>
</g>
<defs>
<filter id="filter0_d_2055_129" x="32.3333" y="-17.6667" width="448" height="554.667" filterUnits="userSpaceOnUse" color-interpolation-filters="sRGB">
<feFlood flood-opacity="0" result="BackgroundImageFix"/>
<feColorMatrix in="SourceAlpha" type="matrix" values="0 0 0 0 0 0 0 0 0 0 0 0 0 0 0 0 0 0 127 0" result="hardAlpha"/>
<feOffset dy="4"/>
<feGaussianBlur stdDeviation="21.3333"/>
<feComposite in2="hardAlpha" operator="out"/>
<feColorMatrix type="matrix" values="0 0 0 0 0.330469 0 0 0 0 0.117188 0 0 0 0 0.9375 0 0 0 0.25 0"/>
<feBlend mode="normal" in2="BackgroundImageFix" result="effect1_dropShadow_2055_129"/>
<feBlend mode="normal" in="SourceGraphic" in2="effect1_dropShadow_2055_129" result="shape"/>
</filter>
<linearGradient id="paint0_linear_2055_129" x1="256.333" y1="21" x2="256.333" y2="501" gradientUnits="userSpaceOnUse">
<stop offset="0.0572275" stop-color="#210080"/>
<stop offset="0.473958" stop-color="#E50000"/>
<stop offset="0.9375" stop-color="#210080"/>
</linearGradient>
<linearGradient id="paint1_linear_2055_129" x1="256.333" y1="21" x2="256.333" y2="501" gradientUnits="userSpaceOnUse">
<stop offset="0.0572275" stop-color="#210080"/>
<stop offset="0.473958" stop-color="#E50000"/>
<stop offset="0.9375" stop-color="#210080"/>
</linearGradient>
<linearGradient id="paint2_linear_2055_129" x1="256.333" y1="21" x2="256.333" y2="501" gradientUnits="userSpaceOnUse">
<stop offset="0.0572275" stop-color="#210080"/>
<stop offset="0.473958" stop-color="#E50000"/>
<stop offset="0.9375" stop-color="#210080"/>
</linearGradient>
<clipPath id="clip0_2055_129">
<rect width="512" height="512" fill="white"/>
</clipPath>
</defs>
</svg>
